<svg width="80" height="80" viewBox="0 0 80 80" fill="none" xmlns="http://www.w3.org/2000/svg">
<g clip-path="url(#clip0_3_518)">
<path d="M40 80C62.0914 80 80 62.0914 80 40C80 17.9086 62.0914 0 40 0C17.9086 0 0 17.9086 0 40C0 62.0914 17.9086 80 40 80Z" fill="black"/>
<path d="M30.4416 23.6686L25.0104 20.512L39.7836 11.875L54.6003 20.512L49.1689 23.6686L39.7836 18.2322L30.4416 23.6686ZM58.4674 29.1051V35.4623L63.8988 32.3057V25.9484L58.4674 22.7479L53.036 25.9046L58.4674 29.1051ZM34.3522 25.9484L39.7836 29.1051L45.215 25.9484L39.7836 22.7479L34.3522 25.9484ZM54.6003 31.3848L49.1689 28.2282L39.7836 33.6648L30.4416 28.2282L25.0104 31.3848V37.7421L34.3522 43.1785V54.0514L39.7836 57.2081L45.215 54.0514V43.1785L54.6003 37.7421V31.3848ZM58.4674 50.8948L49.1256 56.3314V62.6884L63.9423 54.0514V36.8214L58.4674 40.0218V50.8948ZM49.1256 51.8155L54.5568 48.6588V42.2578L49.1256 45.4144V51.8155ZM34.3522 58.6111V64.9682L39.7836 68.125L45.215 64.9682V58.6111L39.7836 61.7678L34.3522 58.6111ZM15.625 32.3057L21.0563 35.4623V29.1051L26.4877 25.9484L21.0998 22.7479L15.6685 25.9046V32.3057H15.625ZM21.0998 40.0218L15.6685 36.8652V54.0954L30.4851 62.7322V56.3752L21.0998 50.8948V40.0218ZM30.4416 45.4584L25.0104 42.3018V48.6588L30.4416 51.8155V45.4584Z" fill="#F1BA0D"/>
</g>
<defs>
<clipPath id="clip0_3_518">
<rect width="80" height="80" fill="white"/>
</clipPath>
</defs>
</svg>
