<svg width="80" height="80" viewBox="0 0 80 80" fill="none" xmlns="http://www.w3.org/2000/svg">
<g clip-path="url(#clip0_3_548)">
<path d="M40 80C62.0914 80 80 62.0914 80 40C80 17.9086 62.0914 0 40 0C17.9086 0 3.05176e-05 17.9086 3.05176e-05 40C3.05176e-05 62.0914 17.9086 80 40 80Z" fill="black"/>
<path fill-rule="evenodd" clip-rule="evenodd" d="M62.4843 25.3687L63.8018 22.1307C63.8018 22.1307 62.1249 20.3318 60.0887 18.293C58.0525 16.2542 53.7405 17.4535 53.7405 17.4535L48.8296 11.8751H40.2056H31.5816L26.6707 17.4535C26.6707 17.4535 22.3587 16.2542 20.3224 18.293C18.2862 20.3318 16.6093 22.1307 16.6093 22.1307L17.9269 25.3687L16.25 30.1658C16.25 30.1658 21.1819 48.8692 21.7598 51.1532C22.8977 55.6505 23.6762 57.3895 26.9102 59.6681C30.1442 61.9467 36.0134 65.9043 36.9716 66.504C37.9298 67.1036 39.1276 68.125 40.2056 68.125C41.2836 68.125 42.4814 67.1036 43.4396 66.504C44.3978 65.9043 50.2669 61.9467 53.5009 59.6681C56.7349 57.3895 57.5135 55.6505 58.6514 51.1532C59.2292 48.8692 64.1612 30.1658 64.1612 30.1658L62.4843 25.3687Z" fill="url(#paint0_linear_3_548)"/>
<path fill-rule="evenodd" clip-rule="evenodd" d="M52.363 20.9913C52.363 20.9913 58.6796 28.6367 58.6796 30.2707C58.6796 31.9047 57.885 32.336 57.0861 33.1855C56.2872 34.0349 52.7979 37.7448 52.3498 38.2211C51.9017 38.6976 50.9689 39.4199 51.5176 40.72C52.0663 42.0202 52.8758 43.6746 51.9756 45.3526C51.0754 47.0306 49.5332 48.1506 48.5451 47.9655C47.5569 47.7802 45.2362 46.5659 44.3828 46.0113C43.5294 45.4566 40.8246 43.2231 40.8246 42.3685C40.8246 41.514 43.6205 39.9796 44.137 39.631C44.6537 39.2825 47.0098 37.9332 47.058 37.4036C47.1062 36.8738 47.0879 36.7185 46.3925 35.4099C45.6972 34.1011 44.4451 32.3547 44.6535 31.1927C44.8619 30.0309 46.8814 29.4267 48.3225 28.8817C49.7635 28.3369 52.5381 27.3078 52.8846 27.1478C53.2314 26.9877 53.1418 26.8353 52.0917 26.7356C51.0418 26.636 48.0622 26.24 46.7189 26.6149C45.3756 26.9897 43.0807 27.5601 42.8948 27.8626C42.7089 28.165 42.5449 28.1752 42.7358 29.2186C42.9267 30.262 43.9095 35.2685 44.0049 36.1577C44.1004 37.047 44.287 37.6349 43.3293 37.8541C42.3716 38.0734 40.7595 38.454 40.2055 38.454C39.6516 38.454 38.0394 38.0734 37.0817 37.8541C36.124 37.6349 36.3106 37.047 36.4061 36.1577C36.5015 35.2685 37.4843 30.262 37.6752 29.2186C37.866 28.1752 37.7021 28.165 37.5163 27.8626C37.3304 27.5601 35.0353 26.9897 33.692 26.6149C32.3487 26.24 29.3692 26.636 28.3193 26.7356C27.2693 26.8353 27.1797 26.9877 27.5263 27.1478C27.873 27.3078 30.6476 28.3369 32.0885 28.8817C33.5296 29.4267 35.5492 30.0309 35.7576 31.1927C35.966 32.3547 34.7137 34.1011 34.0185 35.4099C33.3232 36.7185 33.3048 36.8738 33.353 37.4036C33.4012 37.9332 35.7573 39.2825 36.2739 39.631C36.7906 39.9796 39.5864 41.514 39.5864 42.3685C39.5864 43.2231 36.8817 45.4566 36.0283 46.0113C35.1749 46.5659 32.8542 47.7802 31.866 47.9655C30.8778 48.1506 29.3357 47.0306 28.4354 45.3526C27.5353 43.6746 28.3448 42.0202 28.8934 40.72C29.4421 39.4199 28.5093 38.6976 28.0611 38.2211C27.6132 37.7448 24.1238 34.0349 23.3249 33.1855C22.526 32.336 21.7315 31.9047 21.7315 30.2707C21.7315 28.6367 28.0481 20.9913 28.0481 20.9913C28.0481 20.9913 33.3782 22.0107 34.0969 22.0107C34.8155 22.0107 36.3726 21.4111 37.81 20.9314C39.2473 20.4516 40.2055 20.4482 40.2055 20.4482C40.2055 20.4482 41.1638 20.4516 42.6011 20.9314C44.0384 21.4111 45.5955 22.0107 46.3142 22.0107C47.0329 22.0107 52.363 20.9913 52.363 20.9913ZM47.6277 50.2365C48.0186 50.4816 47.7801 50.9437 47.424 51.1958C47.0678 51.4479 42.2814 55.1589 41.8169 55.5691C41.3523 55.9793 40.6697 56.6568 40.2055 56.6568C39.7414 56.6568 39.0586 55.9793 38.5941 55.5691C38.1295 55.1589 33.3432 51.4479 32.987 51.1958C32.6308 50.9437 32.3924 50.4816 32.7834 50.2365C33.1744 49.9915 34.3977 49.373 36.0858 48.4984C37.7735 47.6239 39.8772 46.8803 40.2055 46.8803C40.5338 46.8803 42.6374 47.6239 44.3254 48.4984C46.0133 49.373 47.2366 49.9915 47.6277 50.2365Z" fill="white"/>
<mask id="mask0_3_548" style="mask-type:alpha" maskUnits="userSpaceOnUse" x="20" y="11" width="41" height="12">
<path d="M53.7405 17.4534L48.8296 11.875H40.2056H31.5816L26.6707 17.4534C26.6707 17.4534 22.3587 16.2542 20.3224 18.2929C20.3224 18.2929 26.0718 17.7733 28.0481 20.9913C28.0481 20.9913 33.3782 22.0107 34.0969 22.0107C34.8156 22.0107 36.3727 21.4111 37.81 20.9313C39.2474 20.4516 40.2056 20.4482 40.2056 20.4482C40.2056 20.4482 41.1638 20.4516 42.6011 20.9313C44.0385 21.4111 45.5956 22.0107 46.3143 22.0107C47.0329 22.0107 52.363 20.9913 52.363 20.9913C54.3394 17.7733 60.0887 18.2929 60.0887 18.2929C58.0525 16.2542 53.7405 17.4534 53.7405 17.4534Z" fill="white"/>
</mask>
<g mask="url(#mask0_3_548)">
<path d="M53.7405 17.4534L48.8296 11.875H40.2056H31.5816L26.6707 17.4534C26.6707 17.4534 22.3587 16.2542 20.3224 18.2929C20.3224 18.2929 26.0718 17.7733 28.0481 20.9913C28.0481 20.9913 33.3782 22.0107 34.0969 22.0107C34.8156 22.0107 36.3727 21.4111 37.81 20.9313C39.2474 20.4516 40.2056 20.4482 40.2056 20.4482C40.2056 20.4482 41.1638 20.4516 42.6011 20.9313C44.0385 21.4111 45.5956 22.0107 46.3143 22.0107C47.0329 22.0107 52.363 20.9913 52.363 20.9913C54.3394 17.7733 60.0887 18.2929 60.0887 18.2929C58.0525 16.2542 53.7405 17.4534 53.7405 17.4534Z" fill="url(#paint1_linear_3_548)"/>
</g>
</g>
<defs>
<linearGradient id="paint0_linear_3_548" x1="16.25" y1="40.3969" x2="64.1612" y2="40.3969" gradientUnits="userSpaceOnUse">
<stop stop-color="#FF5500"/>
<stop offset="0.409877" stop-color="#FF5500"/>
<stop offset="0.581981" stop-color="#FF2000"/>
<stop offset="1" stop-color="#FF2000"/>
</linearGradient>
<linearGradient id="paint1_linear_3_548" x1="21.1768" y1="17.0144" x2="60.0887" y2="17.0144" gradientUnits="userSpaceOnUse">
<stop stop-color="#FF452A"/>
<stop offset="1" stop-color="#FF2000"/>
</linearGradient>
<clipPath id="clip0_3_548">
<rect width="80" height="80" rx="24" fill="white"/>
</clipPath>
</defs>
</svg>
