<svg width="80" height="80" viewBox="0 0 80 80" fill="none" xmlns="http://www.w3.org/2000/svg">
<g clip-path="url(#clip0_3_524)">
<path d="M40 80C62.0914 80 80 62.0914 80 40C80 17.9086 62.0914 0 40 0C17.9086 0 0 17.9086 0 40C0 62.0914 17.9086 80 40 80Z" fill="#0052FF"/>
<path fill-rule="evenodd" clip-rule="evenodd" d="M11.875 40C11.875 55.533 24.467 68.125 40 68.125C55.533 68.125 68.125 55.533 68.125 40C68.125 24.467 55.533 11.875 40 11.875C24.467 11.875 11.875 24.467 11.875 40ZM32.8125 30.9375C31.777 30.9375 30.9375 31.777 30.9375 32.8125V47.1875C30.9375 48.223 31.777 49.0625 32.8125 49.0625H47.1875C48.223 49.0625 49.0625 48.223 49.0625 47.1875V32.8125C49.0625 31.777 48.223 30.9375 47.1875 30.9375H32.8125Z" fill="white"/>
</g>
<defs>
<clipPath id="clip0_3_524">
<rect width="80" height="80" fill="white"/>
</clipPath>
</defs>
</svg>
