<svg width="80" height="80" viewBox="0 0 80 80" fill="none" xmlns="http://www.w3.org/2000/svg">
<g clip-path="url(#clip0_3_536)">
<path d="M40 80C62.0914 80 80 62.0914 80 40C80 17.9086 62.0914 0 40 0C17.9086 0 0 17.9086 0 40C0 62.0914 17.9086 80 40 80Z" fill="black"/>
<path fill-rule="evenodd" clip-rule="evenodd" d="M16.2527 49.4519C16.2521 49.4999 16.2517 49.548 16.2517 49.5963C16.2517 55.4966 21.0349 60.2797 26.9353 60.2797C32.8356 60.2797 37.6187 55.4966 37.6187 49.5963C37.6187 49.548 37.6184 49.4999 37.6179 49.4519H32.5638C32.5651 49.4998 32.5656 49.5479 32.5656 49.5963C32.5656 52.7059 30.0448 55.2268 26.9352 55.2268C23.8255 55.2268 21.3047 52.7059 21.3047 49.5963C21.3047 49.5479 21.3053 49.4998 21.3065 49.4519H16.2527ZM26.9353 20C33.8722 20 39.4956 25.6235 39.4956 32.5604C39.4956 39.4973 33.8722 45.1207 26.9353 45.1207C19.9985 45.1207 14.375 39.4973 14.375 32.5604C14.375 25.6235 19.9985 20 26.9353 20ZM26.9353 25.053C31.0815 25.053 34.4427 28.4141 34.4427 32.5603C34.4427 36.7064 31.0815 40.0677 26.9353 40.0677C22.7891 40.0677 19.428 36.7064 19.428 32.5603C19.428 28.4141 22.7891 25.053 26.9353 25.053ZM27.8014 30.1094C28.8108 30.4662 29.5341 31.4288 29.5341 32.5604C29.5341 33.9956 28.3705 35.159 26.9353 35.159C25.5001 35.159 24.3366 33.9956 24.3366 32.5604C24.3366 31.4289 25.0597 30.4664 26.0691 30.1096V28.3736H27.8014V30.1094ZM43.8341 35.8074C43.001 34.2863 42.5274 32.5401 42.5274 30.6835C42.5274 24.7832 47.3106 20 53.2109 20C59.1113 20 63.8944 24.7832 63.8944 30.6835C63.8944 32.5403 63.4207 34.2863 62.5877 35.8076C61.2688 34.7679 59.7729 33.9426 58.1528 33.3842C58.5918 32.5823 58.8414 31.6621 58.8414 30.6835C58.8414 27.5738 56.3206 25.053 53.2109 25.053C50.1013 25.053 47.5805 27.5738 47.5805 30.6835C47.5805 31.6621 47.8301 32.5823 48.2691 33.384C46.649 33.9425 45.1531 34.7678 43.8341 35.8074ZM53.2109 60.2797C60.1478 60.2797 65.7713 54.6562 65.7713 47.7194C65.7713 40.7825 60.1478 35.159 53.2109 35.159C46.2741 35.159 40.6506 40.7825 40.6506 47.7194C40.6506 54.6562 46.2741 60.2797 53.2109 60.2797ZM53.2109 55.2268C57.3571 55.2268 60.7182 51.8655 60.7182 47.7194C60.7182 43.5732 57.3571 40.2121 53.2109 40.2121C49.0648 40.2121 45.7035 43.5732 45.7035 47.7194C45.7035 51.8655 49.0648 55.2268 53.2109 55.2268ZM54.0771 50.1703C55.0865 49.8135 55.8097 48.851 55.8097 47.7194C55.8097 46.2841 54.6462 45.1207 53.2109 45.1207C51.7757 45.1207 50.6123 46.2841 50.6123 47.7194C50.6123 48.8508 51.3354 49.8134 52.3447 50.1702V51.9062H54.0771V50.1703Z" fill="#DEAE30"/>
</g>
<defs>
<clipPath id="clip0_3_536">
<rect width="80" height="80" fill="white"/>
</clipPath>
</defs>
</svg>
