<svg width="80" height="80" viewBox="0 0 80 80" fill="none" xmlns="http://www.w3.org/2000/svg">
<g clip-path="url(#clip0_3_554)">
<path d="M40 80C62.0914 80 80 62.0914 80 40C80 17.9086 62.0914 0 40 0C17.9086 0 0 17.9086 0 40C0 62.0914 17.9086 80 40 80Z" fill="url(#paint0_linear_3_554)"/>
<path d="M69.115 40.5714H61.9637C61.9637 26.1032 50.1081 14.375 35.4827 14.375C21.0382 14.375 9.29473 25.8161 9.00736 40.0364C8.70998 54.7356 22.6506 67.5 37.5116 67.5H39.3809C52.4827 67.5 70.0431 57.3542 72.7869 44.9921C73.2937 42.7133 71.4737 40.5714 69.115 40.5714ZM24.8555 41.2159C24.8555 43.1507 23.2559 44.7331 21.3001 44.7331C19.3443 44.7331 17.7447 43.1499 17.7447 41.2159V35.5259C17.7447 33.5911 19.3443 32.0087 21.3001 32.0087C23.2559 32.0087 24.8555 33.5911 24.8555 35.5259V41.2159ZM37.2015 41.2159C37.2015 43.1507 35.6019 44.7331 33.6461 44.7331C31.6903 44.7331 30.0907 43.1499 30.0907 41.2159V35.5259C30.0907 33.5911 31.691 32.0087 33.6461 32.0087C35.6019 32.0087 37.2015 33.5911 37.2015 35.5259V41.2159Z" fill="url(#paint1_linear_3_554)"/>
</g>
<defs>
<linearGradient id="paint0_linear_3_554" x1="40" y1="0" x2="40" y2="80" gradientUnits="userSpaceOnUse">
<stop stop-color="#534BB1"/>
<stop offset="1" stop-color="#551BF9"/>
</linearGradient>
<linearGradient id="paint1_linear_3_554" x1="40.9374" y1="14.375" x2="40.9374" y2="67.5" gradientUnits="userSpaceOnUse">
<stop stop-color="white"/>
<stop offset="1" stop-color="white" stop-opacity="0.82"/>
</linearGradient>
<clipPath id="clip0_3_554">
<rect width="80" height="80" fill="white"/>
</clipPath>
</defs>
</svg>
