<svg width="80" height="80" viewBox="0 0 80 80" fill="none" xmlns="http://www.w3.org/2000/svg">
<g clip-path="url(#clip0_3_542)">
<path d="M40 80C62.0914 80 80 62.0914 80 40C80 17.9086 62.0914 0 40 0C17.9086 0 0 17.9086 0 40C0 62.0914 17.9086 80 40 80Z" fill="url(#paint0_radial_3_542)"/>
<path d="M25.1172 30.8945C33.1641 23.0352 46.2266 23.0352 54.2734 30.8945L55.2422 31.8477C55.6484 32.2383 55.6484 32.8789 55.2422 33.2695L51.9297 36.5039C51.7266 36.707 51.3984 36.707 51.1953 36.5039L49.8672 35.207C44.2422 29.7227 35.1484 29.7227 29.5234 35.207L28.1016 36.5977C27.8984 36.8008 27.5703 36.8008 27.3672 36.5977L24.0547 33.3633C23.6484 32.9727 23.6484 32.332 24.0547 31.9414L25.1172 30.8945ZM61.1328 37.582L64.0859 40.457C64.4922 40.8477 64.4922 41.4883 64.0859 41.8789L50.7891 54.8633C50.3828 55.2539 49.7266 55.2539 49.3359 54.8633L39.8984 45.6445C39.8047 45.5508 39.6328 45.5508 39.5391 45.6445L30.1016 54.8633C29.6953 55.2539 29.0391 55.2539 28.6484 54.8633L15.3047 41.8789C14.8984 41.4883 14.8984 40.8477 15.3047 40.457L18.2578 37.582C18.6641 37.1914 19.3203 37.1914 19.7109 37.582L29.1484 46.8008C29.2422 46.8945 29.4141 46.8945 29.5078 46.8008L38.9453 37.582C39.3516 37.1914 40.0078 37.1914 40.3984 37.582L49.8359 46.8008C49.9297 46.8945 50.1016 46.8945 50.1953 46.8008L59.6328 37.582C60.0703 37.1914 60.7266 37.1914 61.1328 37.582Z" fill="white"/>
</g>
<defs>
<radialGradient id="paint0_radial_3_542" cx="0" cy="0" r="1" gradientUnits="userSpaceOnUse" gradientTransform="translate(0.000247955 40.0012) scale(80)">
<stop stop-color="#5D9DF6"/>
<stop offset="1" stop-color="#006FFF"/>
</radialGradient>
<clipPath id="clip0_3_542">
<rect width="80" height="80" fill="white"/>
</clipPath>
</defs>
</svg>
